# Blender v2.78 (sub 0) OBJ File: 'models.blend'
# www.blender.org
mtllib legs.mtl
g Cube.002
v 3.400000 -0.100000 -1.700000
v 3.400000 0.000000 -1.700000
v 3.600000 -0.100000 -1.700000
v 3.600000 0.000000 -1.700000
v 3.400000 -0.100000 -1.300000
v 3.400000 0.000000 -1.300000
v 3.600000 -0.100000 -1.300000
v 3.600000 0.000000 -1.300000
v 3.400000 -0.100000 1.200000
v 3.400000 0.000000 1.200000
v 3.600000 -0.100000 1.200000
v 3.600000 0.000000 1.200000
v 3.400000 -0.100000 1.600000
v 3.400000 0.000000 1.600000
v 3.600000 -0.100000 1.600000
v 3.600000 0.000000 1.600000
v -3.400000 -0.100000 -1.700000
v -3.400000 0.000000 -1.700000
v -3.600000 -0.100000 -1.700000
v -3.600000 0.000000 -1.700000
v -3.400000 -0.100000 -1.300000
v -3.400000 0.000000 -1.300000
v -3.600000 -0.100000 -1.300000
v -3.600000 0.000000 -1.300000
v -3.400000 -0.100000 1.200000
v -3.400000 0.000000 1.200000
v -3.600000 -0.100000 1.200000
v -3.600000 0.000000 1.200000
v -3.400000 -0.100000 1.600000
v -3.400000 0.000000 1.600000
v -3.600000 -0.100000 1.600000
v -3.600000 0.000000 1.600000
vt 0.2000 0.4500
vt 0.2000 0.5000
vt 0.3000 0.5000
vt 0.3000 0.4500
vt 0.6500 0.4500
vt 0.6500 0.5000
vt 0.8500 0.5000
vt 0.8500 0.4500
vt 0.3000 0.4500
vt 0.3000 0.5000
vt 0.2000 0.5000
vt 0.2000 0.4500
vt 0.8500 0.4500
vt 0.8500 0.5000
vt 0.6500 0.5000
vt 0.6500 0.4500
vt 0.6500 0.3000
vt 0.8500 0.3000
vt 0.8500 0.2000
vt 0.6500 0.2000
vt 0.2000 0.4500
vt 0.2000 0.5000
vt 0.3000 0.5000
vt 0.3000 0.4500
vt 0.1000 0.4500
vt 0.1000 0.5000
vt 0.3000 0.5000
vt 0.3000 0.4500
vt 0.2000 0.5000
vt 0.2000 0.4500
vt 0.3000 0.4500
vt 0.3000 0.5000
vt 0.1000 0.5000
vt 0.1000 0.4500
vt 0.1000 0.3000
vt 0.3000 0.3000
vt 0.3000 0.2000
vt 0.1000 0.2000
vt 0.2000 0.4500
vt 0.3000 0.4500
vt 0.3000 0.5000
vt 0.2000 0.5000
vt 0.6500 0.4500
vt 0.8500 0.4500
vt 0.8500 0.5000
vt 0.6500 0.5000
vt 0.3000 0.4500
vt 0.2000 0.4500
vt 0.2000 0.5000
vt 0.3000 0.5000
vt 0.8500 0.4500
vt 0.6500 0.4500
vt 0.6500 0.5000
vt 0.8500 0.5000
vt 0.6500 0.3000
vt 0.6500 0.2000
vt 0.8500 0.2000
vt 0.8500 0.3000
vt 0.2000 0.4500
vt 0.3000 0.4500
vt 0.3000 0.5000
vt 0.2000 0.5000
vt 0.1000 0.4500
vt 0.3000 0.4500
vt 0.3000 0.5000
vt 0.1000 0.5000
vt 0.2000 0.4500
vt 0.2000 0.5000
vt 0.3000 0.4500
vt 0.1000 0.4500
vt 0.1000 0.5000
vt 0.3000 0.5000
vt 0.1000 0.3000
vt 0.1000 0.2000
vt 0.3000 0.2000
vt 0.3000 0.3000
vn 0.0000 0.0000 -1.0000
vn 1.0000 0.0000 0.0000
vn 0.0000 0.0000 1.0000
vn -1.0000 0.0000 0.0000
vn 0.0000 -1.0000 0.0000
usemtl None
s off
f 1/1/1 2/2/1 4/3/1 3/4/1
f 3/5/2 4/6/2 8/7/2 7/8/2
f 7/9/3 8/10/3 6/11/3 5/12/3
f 5/13/4 6/14/4 2/15/4 1/16/4
f 3/17/5 7/18/5 5/19/5 1/20/5
f 9/21/1 10/22/1 12/23/1 11/24/1
f 11/25/2 12/26/2 16/27/2 15/28/2
f 15/28/3 16/27/3 14/29/3 13/30/3
f 13/31/4 14/32/4 10/33/4 9/34/4
f 11/35/5 15/36/5 13/37/5 9/38/5
f 17/39/1 19/40/1 20/41/1 18/42/1
f 19/43/4 23/44/4 24/45/4 20/46/4
f 23/47/3 21/48/3 22/49/3 24/50/3
f 21/51/2 17/52/2 18/53/2 22/54/2
f 19/55/5 17/56/5 21/57/5 23/58/5
f 25/59/1 27/60/1 28/61/1 26/62/1
f 27/63/4 31/64/4 32/65/4 28/66/4
f 31/64/3 29/67/3 30/68/3 32/65/3
f 29/69/2 25/70/2 26/71/2 30/72/2
f 27/73/5 25/74/5 29/75/5 31/76/5
