# Blender v2.78 (sub 0) OBJ File: 'models.blend'
# www.blender.org
mtllib microwave colliders.mtl
g Plane.042
v -2.000000 4.000000 -2.000001
v -4.000000 4.000000 -2.000001
v -2.000000 4.000000 -2.500001
v -4.000000 4.000000 -2.500001
v -2.000000 0.000000 -2.000001
v -3.600000 0.000000 -2.000001
v -2.000000 0.400000 -2.500001
v -4.000000 0.400000 -2.500001
v -2.000000 0.400001 -2.000001
v -4.000000 0.400001 -2.000001
vn 0.0000 1.0000 0.0000
vn 0.0000 -0.7809 -0.6247
vn -1.0000 0.0000 -0.0000
vn -0.0000 0.0000 1.0000
vn 1.0000 0.0000 0.0000
vn 0.0000 0.0000 -1.0000
vn -0.7071 -0.7071 0.0000
usemtl None
s off
f 1//1 3//1 4//1 2//1
f 5//2 6//2 8//2 7//2
f 2//3 4//3 8//3 10//3
f 1//4 2//4 10//4 9//4
f 3//5 1//5 9//5 7//5
f 4//6 3//6 7//6 8//6
f 7//5 9//5 5//5
f 10//7 8//7 6//7
f 9//4 10//4 6//4 5//4
g Plane.041
v 0.000000 4.000000 0.000000
v -6.000000 4.000000 -0.000001
v 0.000000 4.000000 -0.500000
v -6.000000 4.000000 -0.500001
v -0.400000 0.000000 -0.000000
v -6.000000 0.000000 -0.000001
v 0.000000 0.400000 -0.500000
v -6.000000 0.400000 -0.500001
v 0.000000 0.400000 0.000000
v -6.000000 0.400000 -0.000001
vn 0.0000 1.0000 0.0000
vn 0.0000 -0.7809 -0.6247
vn -1.0000 0.0000 0.0000
vn -0.0000 0.0000 1.0000
vn 1.0000 0.0000 0.0000
vn 0.0000 0.0000 -1.0000
vn 0.7071 -0.7071 0.0000
usemtl None
s off
f 11//8 13//8 14//8 12//8
f 15//9 16//9 18//9 17//9
f 12//10 14//10 18//10 20//10
f 11//11 12//11 20//11 19//11
f 13//12 11//12 19//12 17//12
f 14//13 13//13 17//13 18//13
f 17//14 19//14 15//14
f 20//10 18//10 16//10
f 19//11 20//11 16//11 15//11
g Plane.040
v -1.600000 3.600000 2.000000
v -1.600000 0.400000 2.000000
v 3.600000 3.600000 2.000000
v 3.600000 0.400000 2.000000
v -1.600000 3.600000 1.200000
v -1.600000 0.400000 1.200000
v 3.600000 3.600000 1.200001
v 3.600000 0.400000 1.200001
vn 0.0000 0.0000 1.0000
vn 0.0000 0.0000 -1.0000
vn -1.0000 0.0000 -0.0000
vn 0.0000 1.0000 0.0000
vn 1.0000 0.0000 -0.0000
vn 0.0000 -1.0000 -0.0000
usemtl None
s off
f 21//15 22//15 24//15 23//15
f 25//16 27//16 28//16 26//16
f 21//17 25//17 26//17 22//17
f 23//18 27//18 25//18 21//18
f 24//19 28//19 27//19 23//19
f 22//20 26//20 28//20 24//20
g Plane.039
v -3.600000 0.000000 1.600000
v -3.600000 0.000000 -2.000000
v -1.600000 0.000000 1.600000
v -1.600000 0.000000 -2.000000
v -4.000000 3.600000 2.000000
v -4.000000 3.600000 -2.000000
v -1.600000 3.600000 2.000000
v -1.600000 3.600000 -2.000000
v -1.600000 0.400000 2.000000
v -1.600000 0.400000 -2.000000
v -4.000000 0.400000 -2.000000
v -4.000000 0.400000 2.000000
vn 0.0000 -1.0000 0.0000
vn 0.0000 1.0000 0.0000
vn 1.0000 0.0000 -0.0000
vn -0.0000 0.0000 -1.0000
vn -1.0000 0.0000 0.0000
vn 0.0000 0.0000 1.0000
vn 0.0000 -0.7071 0.7071
vn -0.7071 -0.7071 0.0000
usemtl None
s off
f 29//21 30//21 32//21 31//21
f 33//22 35//22 36//22 34//22
f 38//23 36//23 35//23 37//23
f 39//24 34//24 36//24 38//24
f 40//25 33//25 34//25 39//25
f 37//26 35//26 33//26 40//26
f 31//27 37//27 40//27 29//27
f 29//28 40//28 39//28 30//28
f 30//24 39//24 38//24 32//24
f 32//23 38//23 37//23 31//23
g Plane.038_Plane.037
v -4.000000 3.600000 2.000000
v -4.000000 3.600000 -2.000000
v 4.000000 3.600000 2.000000
v 4.000000 3.600000 -2.000000
v -4.000000 4.000000 2.000000
v -4.000000 4.000000 -2.000000
v 4.000000 4.000000 2.000000
v 4.000000 4.000000 -2.000000
vn 0.0000 -1.0000 -0.0000
vn 0.0000 1.0000 0.0000
vn -0.0000 0.0000 -1.0000
vn -1.0000 0.0000 0.0000
vn 0.0000 0.0000 1.0000
vn 1.0000 0.0000 -0.0000
usemtl None
s off
f 41//29 42//29 44//29 43//29
f 45//30 47//30 48//30 46//30
f 42//31 46//31 48//31 44//31
f 41//32 45//32 46//32 42//32
f 43//33 47//33 45//33 41//33
f 44//34 48//34 47//34 43//34
g Plane.037_Plane.026
v 3.600000 0.400000 2.000000
v 3.600000 0.400000 -2.000000
v 4.000000 0.400000 2.000000
v 4.000000 0.400000 -2.000000
v 3.600000 3.600000 2.000000
v 3.600000 3.600000 -2.000000
v 4.000000 3.600000 2.000000
v 4.000000 3.600000 -2.000000
v 3.600000 0.000000 1.600000
v 3.600000 0.000000 -2.000000
vn 0.0000 0.0000 -1.0000
vn 0.0000 1.0000 0.0000
vn 1.0000 0.0000 -0.0000
vn -1.0000 0.0000 0.0000
vn 0.0000 0.0000 1.0000
vn 0.0000 -0.7071 0.7071
vn 0.7071 -0.7071 -0.0000
usemtl None
s off
f 50//35 52//35 58//35
f 53//36 55//36 56//36 54//36
f 52//37 56//37 55//37 51//37
f 50//35 54//35 56//35 52//35
f 49//38 53//38 54//38 50//38
f 51//39 55//39 53//39 49//39
f 49//38 50//38 58//38 57//38
f 51//40 49//40 57//40
f 52//41 51//41 57//41 58//41
g Plane.036_Plane.008
v -1.600000 0.000000 -2.000000
v 3.600000 0.000000 -2.000000
v 3.600000 0.400000 -1.000000
v -1.600000 0.400000 -1.000000
v -1.600000 0.400000 2.000000
v 3.600000 0.400000 2.000000
v -1.600000 0.000000 1.600000
v 3.600000 0.000000 1.600000
vn 0.0000 1.0000 0.0000
vn 1.0000 -0.0000 -0.0000
vn -1.0000 -0.0000 0.0000
vn -0.0000 0.9285 -0.3714
vn 0.0000 -0.7071 0.7071
vn 0.0000 -1.0000 0.0000
usemtl None
s off
f 62//42 63//42 64//42 61//42
f 64//43 66//43 60//43 61//43
f 59//44 65//44 63//44 62//44
f 60//45 59//45 62//45 61//45
f 65//46 66//46 64//46 63//46
f 59//47 60//47 66//47 65//47
