# Blender v2.78 (sub 0) OBJ File: 'models.blend'
# www.blender.org
mtllib PIZZA.mtl
o Plane.021_Plane.030
v 1.162217 -0.093148 -0.065048
v 1.033129 0.061949 -0.055012
v 0.951296 0.045583 -0.053752
v 0.729201 0.133163 -0.043585
v 0.420884 0.277564 -0.025307
v 0.133488 0.428899 -0.009903
v -0.130803 0.564832 -0.001229
v -0.419550 0.589276 -0.000000
v -0.483053 0.725573 -0.000000
v -0.610415 0.806620 0.000000
v -0.872021 0.913640 0.055416
v -0.947332 0.814547 -0.014553
v -1.002824 0.445920 -0.014553
v -1.050389 0.037656 -0.014553
v -1.006788 -0.291334 -0.014553
v -1.010752 -0.644106 -0.014553
v -0.963187 -0.858148 -0.014551
v -0.931477 -0.953278 -0.014551
v -0.832384 -0.937423 0.055416
v -0.574741 -0.842293 0.000000
v -0.328990 -0.786801 0.000000
v -0.178368 -0.663925 -0.001114
v 0.045556 -0.505439 -0.007739
v 0.303289 -0.350799 -0.021659
v 0.630233 -0.319081 -0.040005
v 0.844841 -0.213757 -0.050238
v -0.605548 0.709266 -0.000001
v -0.631973 0.365742 -0.000001
v -0.711248 0.160949 0.022826
v -0.620888 -0.053711 0.020740
v -0.674914 -0.370851 0.022826
v -0.671610 -0.631797 0.000000
v -0.622046 -0.859759 0.000000
v -0.757491 0.603566 0.055419
v -0.774007 0.448320 0.055418
v -0.856584 0.141131 0.055418
v -0.810341 -0.202392 0.055416
v -0.807038 -0.413791 0.055416
v -0.793825 -0.734193 0.055418
v -0.729427 0.855307 0.055416
v -0.722890 -0.896994 0.055416
v -0.856584 0.785237 0.055419
v -0.892919 0.534201 0.055416
v -0.955678 0.071766 0.055416
v -0.916041 -0.235424 0.055416
v -0.909434 -0.539310 0.055418
v -0.889616 -0.754012 0.055418
v 0.039637 -0.580687 -0.100000
v 0.317099 -0.414210 -0.100000
v -0.178368 -0.663925 -0.100000
v -0.328990 -0.786801 -0.100000
v -0.574741 -0.842293 -0.100000
v -0.622046 -0.859759 -0.100000
v -0.931477 -0.953277 -0.071444
v -0.832384 -0.937423 -0.100000
v -0.963187 -0.858148 -0.063223
v -1.010752 -0.644106 -0.053188
v -1.006788 -0.291334 -0.055596
v -1.050389 0.037656 -0.053774
v -1.002824 0.445920 -0.052817
v -0.947332 0.814547 -0.100000
v -0.872021 0.913640 -0.100000
v -0.729427 0.855307 -0.100000
v -0.439974 0.731309 -0.100000
v -0.610415 0.806620 -0.100000
v -0.344844 0.667889 -0.100000
v -0.130803 0.564832 -0.100000
v 0.122876 0.477630 -0.100000
v 0.392410 0.358718 -0.100000
v 0.713472 0.180350 -0.100000
v 0.951296 0.045583 -0.100000
v 1.090026 0.073329 -0.100000
v 1.185156 -0.093148 -0.100000
v 0.630233 -0.319081 -0.100000
v 0.852202 -0.235842 -0.100000
v -0.631973 0.365742 -0.100001
v -0.605548 0.709266 -0.100001
v -0.721157 -0.086784 -0.099999
v -0.711248 0.160949 -0.099999
v -0.671610 -0.631797 -0.100000
v -0.674914 -0.370851 -0.099999
v -0.722890 -0.896994 -0.100000
v -0.774007 0.448320 -0.099998
v -0.757491 0.603566 -0.099997
v -0.810341 -0.202392 -0.100000
v -0.856584 0.141131 -0.099998
v -0.793825 -0.734193 -0.099998
v -0.807038 -0.413791 -0.100000
v -0.856584 0.785237 -0.099997
v -0.909434 -0.539310 -0.099998
v -0.916041 -0.235424 -0.100000
v -0.955678 0.071766 -0.100000
v -0.892919 0.534201 -0.100000
v -0.889616 -0.754012 -0.099998
v -1.058276 0.038831 -0.034009
v -1.014249 -0.293372 -0.034928
v 0.322571 -0.417448 -0.061418
v 0.638764 -0.321390 -0.070197
v -1.010246 0.451084 -0.033525
v 0.859185 -0.226188 -0.075364
v -0.954212 0.823312 -0.057347
v -0.838141 -0.945772 -0.022021
v -0.727578 -0.904949 -0.022021
v 1.187526 -0.093250 -0.082841
v -0.878165 0.923373 -0.022021
v -0.734178 0.864470 -0.022021
v 0.042399 -0.585551 -0.053852
v -0.441898 0.739260 -0.050000
v -0.614003 0.815307 -0.050000
v -0.177736 -0.669603 -0.050562
v -0.345839 0.675221 -0.050000
v -0.329829 -0.793679 -0.050000
v -0.625748 -0.867350 -0.050000
v -0.129706 0.571157 -0.050620
v -0.577981 -0.849713 -0.050000
v 0.126450 0.483103 -0.054629
v 0.398617 0.363030 -0.061767
v -0.938202 -0.961782 -0.042929
v 0.722816 0.182919 -0.071548
v -0.970222 -0.865723 -0.038778
v 0.962963 0.046836 -0.077138
v -1.018251 -0.649590 -0.033712
v 1.074322 0.069108 -0.077775
vt 0.2051 0.5196
vt 0.2217 0.7195
vt 0.1831 0.6838
vt 0.1708 0.5050
vt 0.9445 0.8894
vt 0.9655 0.8987
vt 0.9500 0.9228
vt 0.9203 0.8831
vt 0.9134 0.6665
vt 0.9234 0.6357
vt 0.9425 0.7114
vt 0.7091 0.5479
vt 0.6143 0.6141
vt 0.6764 0.3492
vt 0.7407 0.3887
vt 0.2611 0.8484
vt 0.2322 0.8194
vt 0.2597 0.7491
vt 0.3048 0.7985
vt 0.8889 0.7204
vt 0.9169 0.7470
vt 0.9098 0.7788
vt 0.7743 0.7304
vt 0.8149 0.6490
vt 0.8197 0.6579
vt 0.8015 0.6937
vt 0.7958 0.6851
vt 0.9075 0.5908
vt 0.9049 0.5955
vt 0.8951 0.5818
vt 0.8965 0.5757
vt 0.8578 0.9797
vt 0.8579 0.9680
vt 0.8960 0.9724
vt 0.8958 0.9846
vt 0.8872 0.6347
vt 0.9058 0.7012
vt 0.8751 0.6656
vt 0.9714 0.9502
vt 0.9606 0.9744
vt 0.9350 0.9568
vt 0.8532 0.6085
vt 0.8570 0.6189
vt 0.8507 0.6258
vt 0.8468 0.6156
vt 0.9834 0.9498
vt 0.1806 0.3582
vt 0.2147 0.3854
vt 0.9140 0.9881
vt 0.9137 0.9764
vt 0.9418 0.9764
vt 0.9431 0.9880
vt 0.7711 0.9715
vt 0.7722 0.9628
vt 0.8164 0.9672
vt 0.8159 0.9776
vt 0.9675 0.7788
vt 0.9822 0.8712
vt 0.9790 0.8713
vt 0.9644 0.7801
vt 0.9455 0.7090
vt 0.9260 0.6326
vt 0.8704 0.6047
vt 0.6721 0.9476
vt 0.6744 0.9421
vt 0.7173 0.9525
vt 0.7157 0.9587
vt 0.9641 0.9918
vt 0.9787 0.9690
vt 0.9857 0.9799
vt 0.6971 0.8320
vt 0.7358 0.7801
vt 0.7405 0.7862
vt 0.7011 0.8362
vt 0.9898 0.9521
vt 0.8649 0.5883
vt 0.7693 0.7230
vt 0.2996 0.6498
vt 0.2559 0.6836
vt 0.6449 0.9182
vt 0.6739 0.8728
vt 0.6526 0.9393
vt 0.2225 0.1580
vt 0.1824 0.2022
vt 0.1969 0.1113
vt 0.2173 0.2480
vt 0.9306 0.7320
vt 0.6701 0.8702
vt 0.6424 0.9179
vt 0.2462 0.3989
vt 0.2337 0.5499
vt 0.8257 0.4301
vt 0.8033 0.4976
vt 0.7796 0.5045
vt 0.3619 0.7504
vt 0.3396 0.8094
vt 0.9512 0.7952
vt 0.9406 0.8175
vt 0.6523 0.9449
vt 0.2875 0.2076
vt 0.2987 0.1005
vt 0.3141 0.1077
vt 0.3857 0.1374
vt 0.2311 0.8588
vt 0.2031 0.8369
vt 0.8996 0.6235
vt 0.4337 0.1859
vt 0.2864 0.3224
vt 0.2457 0.3044
vt 0.2495 0.1652
vt 0.2625 0.0987
vt 0.2773 0.5591
vt 0.3040 0.4635
vt 0.4476 0.7386
vt 0.5810 0.3289
vt 0.5270 0.6811
vt 0.5034 0.2582
vt 0.2997 0.8415
vt 0.2362 0.0903
vt 0.2091 0.0751
vt 0.8842 0.5920
vt 0.8813 0.5753
vt 0.9209 0.8329
vt 0.2327 0.0604
vt 0.2674 0.0663
vt 0.2217 0.8840
vt 0.1920 0.8465
vt 0.6816 0.3380
vt 0.7462 0.3780
vt 0.8157 0.5012
vt 0.7856 0.5135
vt 0.2035 0.0652
vt 0.3052 0.8636
vt 0.2658 0.8816
vt 0.8340 0.4264
vt 0.4413 0.1651
vt 0.5054 0.2165
vt 0.5891 0.2947
vt 0.1766 0.1990
vt 0.1904 0.1051
vt 0.3031 0.0767
vt 0.1774 0.6868
vt 0.7084 0.5747
vt 0.6092 0.6569
vt 0.3852 0.7954
vt 0.3562 0.8255
vt 0.1646 0.5056
vt 0.1741 0.3569
vt 0.5275 0.7131
vt 0.4526 0.7594
vt 0.3174 0.0851
vt 0.3909 0.1165
vn -0.3322 0.0071 0.9431
vn -0.3107 0.0442 0.9495
vn -0.8001 0.1075 0.5902
vn -0.7954 -0.0139 0.6059
vn 0.0000 0.0000 -1.0000
vn -0.1720 -0.0146 -0.9850
vn -0.2159 -0.0056 -0.9764
vn -0.7101 -0.0571 -0.7017
vn -0.6835 -0.0443 -0.7286
vn 0.1935 0.3039 0.9328
vn 0.1711 0.2441 0.9545
vn 0.1848 -0.4462 0.8756
vn 0.2400 -0.4677 0.8506
vn 0.3195 0.5693 0.7574
vn -0.2286 0.0059 0.9735
vn 0.1788 -0.0166 0.9837
vn 0.1485 -0.0074 0.9889
vn 0.2971 -0.6137 -0.7315
vn 0.4283 -0.9036 0.0001
vn 0.3193 -0.6377 -0.7010
vn 0.3113 -0.5443 -0.7790
vn 0.5341 -0.8355 0.1286
vn -0.9633 -0.2684 0.0052
vn -0.6965 -0.1655 -0.6982
vn -0.4335 -0.6577 -0.6160
vn -0.5371 -0.8434 -0.0151
vn 0.3491 0.8979 0.2680
vn 0.2445 0.5977 -0.7635
vn 0.3184 0.5634 -0.7623
vn 0.4530 0.7983 0.3967
vn -0.0433 -0.0040 -0.9990
vn -0.0671 -0.0014 -0.9977
vn 0.2508 0.6238 -0.7402
vn 0.3502 -0.9366 -0.0084
vn 0.2282 -0.6288 -0.7433
vn 0.1807 -0.6201 -0.7634
vn 0.2881 -0.9576 0.0000
vn -0.6316 0.2441 -0.7358
vn -0.7407 -0.0480 0.6701
vn -0.2451 -0.0259 0.9691
vn 0.5192 0.7971 0.3083
vn 0.3322 0.5967 -0.7305
vn 0.2587 0.6151 -0.7448
vn 0.4072 0.9123 0.0431
vn 0.4277 0.8240 0.3715
vn 0.2876 0.5863 -0.7573
vn 0.2409 0.6193 -0.7472
vn 0.3792 0.8897 0.2541
vn -1.0000 -0.0034 0.0027
vn -0.9914 0.1306 0.0081
vn -0.7500 0.0781 -0.6568
vn -0.7430 -0.0109 -0.6692
vn -0.9984 -0.0569 0.0017
vn -0.9930 -0.1175 0.0061
vn 0.2304 -0.6363 -0.7362
vn 0.0297 0.9959 0.0848
vn 0.1381 0.5289 -0.8373
vn 0.3034 0.5451 -0.7815
vn 0.4609 0.8224 0.3334
vn 0.3846 0.9231 0.0060
vn -0.1754 0.7370 -0.6527
vn -0.2915 0.9564 0.0190
vn 0.3385 -0.9057 0.2549
vn 0.3657 -0.8432 0.3940
vn 0.2576 -0.5715 -0.7791
vn 0.2242 -0.6510 -0.7252
vn -0.9173 0.3976 -0.0215
vn 0.3529 -0.9356 0.0063
vn 0.4438 -0.8406 0.3104
vn 0.1322 0.0129 0.9911
vn 0.1733 -0.0197 0.9846
vn 0.8883 -0.3280 -0.3213
vn 0.2768 -0.6766 -0.6823
vn 0.4768 0.7132 -0.5138
vn -0.3532 -0.0725 0.9327
vn -0.7550 -0.0688 0.6521
vn -0.7666 -0.2151 0.6050
vn -0.2385 -0.0029 0.9711
vn -0.1895 -0.0178 -0.9817
vn 0.3760 -0.8819 0.2842
vn 0.7693 -0.2424 0.5910
vn 0.1213 0.0005 0.9926
vn 0.0983 0.0011 0.9951
vn 0.3837 -0.2600 0.8861
vn 0.0202 0.7169 0.6969
vn 0.1132 0.4200 0.9004
vn 0.1024 0.2013 0.9742
vn 0.2888 0.4143 0.8631
vn -0.2397 0.0070 -0.9708
vn 0.3114 0.8355 0.4527
vn 0.1536 -0.0016 0.9881
vn 0.3909 -0.6305 0.6705
vn 0.1807 -0.6201 0.7634
vn 0.3132 -0.6529 0.6896
vn -0.2700 0.6876 0.6740
vn -0.8086 0.2584 0.5285
vn -0.2290 -0.0298 -0.9730
vn 0.3192 -0.4526 0.8326
vn 0.1202 -0.0311 0.9922
vn 0.0384 -0.0169 0.9991
vn 0.1050 0.0320 0.9940
vn 0.3711 -0.5384 0.7566
vn 0.1547 0.0045 0.9879
vn 0.0993 0.0084 0.9950
vn 0.1679 0.4416 0.8813
vn 0.1406 -0.2606 0.9551
vn 0.1949 0.3398 0.9201
vn 0.1986 -0.2791 0.9395
vn 0.4449 0.5967 0.6678
vn -0.0330 -0.6706 0.7411
vn -0.4991 -0.7018 0.5083
vn 0.0744 -0.6669 -0.7414
vn 0.2274 -0.9737 0.0118
usemtl pizza
s 1
f 44/1/1 43/2/2 13/3/3 14/4/4
f 83/5/5 93/6/6 84/7/5 76/8/5
f 90/9/7 57/10/8 58/11/9
f 4/12/10 5/13/11 25/14/12 26/15/13
f 40/16/14 42/17/15 34/18/16 27/19/17
f 81/20/5 85/21/5 78/22/5 48/23/18
f 112/24/19 51/25/20 50/26/21 110/27/22
f 120/28/23 56/29/24 54/30/25 118/31/26
f 114/32/27 67/33/28 66/34/29 111/35/30
f 87/36/31 90/9/7 88/37/32 80/38/5
f 89/39/5 63/40/33 77/41/5 84/7/5
f 113/42/34 53/43/35 52/44/36 115/45/37
f 89/39/5 84/7/5 93/6/6 61/46/38
f 14/4/4 15/47/39 45/48/40 44/1/1
f 108/49/41 64/50/42 65/51/43 109/52/44
f 117/53/45 69/54/46 68/55/47 116/56/48
f 115/45/37 52/44/36 51/25/20 112/24/19
f 116/56/48 68/55/47 67/33/28 114/32/27
f 95/57/49 99/58/50 60/59/51 59/60/52
f 96/61/53 58/11/9 57/10/8 122/62/54
f 87/36/31 80/38/5 53/43/35 82/63/55
f 95/57/49 59/60/52 58/11/9 96/61/53
f 111/35/30 66/34/29 64/50/42 108/49/41
f 121/64/56 71/65/57 70/66/58 119/67/59
f 106/68/60 63/40/33 62/69/61 105/70/62
f 119/67/59 70/66/58 69/54/46 117/53/45
f 80/38/5 81/20/5 50/26/21 51/25/20
f 98/71/63 97/72/64 49/73/65 74/74/66
f 101/75/67 61/46/38 60/59/51 99/58/50
f 113/42/34 103/76/68 82/63/55 53/43/35
f 122/62/54 57/10/8 56/29/24 120/28/23
f 107/77/69 48/23/18 49/73/65 97/72/64
f 76/8/5 84/7/5 77/41/5 66/34/29
f 107/77/69 110/27/22 50/26/21 48/23/18
f 28/78/70 27/19/17 34/18/16 35/79/71
f 73/80/72 75/81/73 71/65/57 72/82/74
f 47/83/75 16/84/76 17/85/77
f 46/86/78 15/47/39 16/84/76
f 88/37/32 91/87/79 85/21/5 81/20/5
f 74/74/66 69/54/46 70/66/58 75/81/73
f 100/88/80 75/81/73 73/80/72 104/89/81
f 37/90/82 36/91/83 44/1/1 45/48/40
f 1/92/84 2/93/85 3/94/86 26/15/13
f 68/55/47 69/54/46 74/74/66 49/73/65
f 8/95/87 9/96/88 27/19/17 28/78/70
f 91/87/79 88/37/32 90/9/7 58/11/9
f 68/55/47 48/23/18 78/22/5 67/33/28
f 92/97/89 93/6/6 83/5/5 86/98/5
f 92/97/89 91/87/79 58/11/9 59/60/52
f 104/89/81 73/80/72 72/82/74 123/99/90
f 109/52/44 65/51/43 63/40/33 106/68/60
f 35/79/71 34/18/16 42/17/15 43/2/2
f 32/100/91 33/101/92 20/102/93
f 20/102/93 21/103/94 32/100/91
f 11/104/95 12/105/96 42/17/15 40/16/14
f 90/9/7 87/36/31 94/106/97 57/10/8
f 32/100/91 21/103/94 22/107/98 31/108/99
f 3/94/86 4/12/10 26/15/13
f 56/29/24 57/10/8 94/106/97
f 45/48/40 15/47/39 46/86/78 38/109/100
f 62/69/61 63/40/33 89/39/5 61/46/38
f 36/91/83 35/79/71 43/2/2 44/1/1
f 33/101/92 32/100/91 39/110/101 41/111/102
f 38/109/100 46/86/78 39/110/101 32/100/91
f 29/112/103 30/113/104 7/114/105
f 29/112/103 28/78/70 35/79/71 36/91/83
f 24/115/106 6/116/107 23/117/108
f 46/86/78 16/84/76 47/83/75 39/110/101
f 9/96/88 10/118/109 27/19/17
f 61/46/38 93/6/6 60/59/51
f 30/113/104 29/112/103 36/91/83 37/90/82
f 19/119/110 47/83/75 17/85/77 18/120/111
f 118/31/26 54/30/25 55/121/112 102/122/113
f 60/59/51 93/6/6 92/97/89 59/60/52
f 123/99/90 72/82/74 71/65/57 121/64/56
f 52/44/36 53/43/35 80/38/5
f 81/20/5 48/23/18 50/26/21
f 52/44/36 80/38/5 51/25/20
f 37/90/82 45/48/40 38/109/100 31/108/99
f 49/73/65 48/23/18 68/55/47
f 54/30/25 56/29/24 94/106/97 55/121/112
f 43/2/2 42/17/15 12/105/96 13/3/3
f 5/13/11 6/116/107 24/115/106 25/14/12
f 78/22/5 79/123/5 67/33/28
f 71/65/57 75/81/73 70/66/58
f 79/123/5 86/98/5 83/5/5 76/8/5
f 23/117/108 30/113/104 31/108/99 22/107/98
f 64/50/42 66/34/29 77/41/5 65/51/43
f 28/78/70 29/112/103 7/114/105 8/95/87
f 98/71/63 74/74/66 75/81/73 100/88/80
f 85/21/5 92/97/89 86/98/5 78/22/5
f 101/75/67 105/70/62 62/69/61 61/46/38
f 66/34/29 67/33/28 79/123/5 76/8/5
f 63/40/33 65/51/43 77/41/5
f 55/121/112 94/106/97 87/36/31 82/63/55
f 6/116/107 7/114/105 30/113/104 23/117/108
f 86/98/5 79/123/5 78/22/5
f 80/38/5 88/37/32 81/20/5
f 19/119/110 41/111/102 39/110/101 47/83/75
f 91/87/79 92/97/89 85/21/5
f 32/100/91 31/108/99 38/109/100
f 27/19/17 10/118/109 40/16/14
f 31/108/99 30/113/104 37/90/82
f 102/122/113 55/121/112 82/63/55 103/76/68
f 19/119/110 102/124/113 103/125/68 41/111/102
f 12/105/96 11/104/95 105/126/62 101/127/67
f 25/14/12 98/128/63 100/129/80 26/15/13
f 2/93/85 123/130/90 121/131/56 3/94/86
f 18/120/111 118/132/26 102/124/113 19/119/110
f 10/118/109 109/133/44 106/134/60 40/16/14
f 1/92/84 104/135/81 123/130/90 2/93/85
f 26/15/13 100/129/80 104/135/81 1/92/84
f 23/117/108 22/107/98 110/136/22 107/137/69
f 23/117/108 107/137/69 97/138/64 24/115/106
f 16/84/76 122/139/54 120/140/23 17/85/77
f 33/101/92 41/111/102 103/125/68 113/141/34
f 12/105/96 101/127/67 99/142/50 13/3/3
f 25/14/12 24/115/106 97/138/64 98/128/63
f 4/12/10 119/143/59 117/144/45 5/13/11
f 40/16/14 106/134/60 105/126/62 11/104/95
f 3/94/86 121/131/56 119/143/59 4/12/10
f 8/95/87 111/145/30 108/146/41 9/96/88
f 14/4/4 95/147/49 96/148/53 15/47/39
f 15/47/39 96/148/53 122/139/54 16/84/76
f 14/4/4 13/3/3 99/142/50 95/147/49
f 6/116/107 116/149/48 114/150/27 7/114/105
f 20/102/93 115/151/37 112/152/19 21/103/94
f 5/13/11 117/144/45 116/149/48 6/116/107
f 9/96/88 108/146/41 109/133/44 10/118/109
f 33/101/92 113/141/34 115/151/37 20/102/93
f 7/114/105 114/150/27 111/145/30 8/95/87
f 17/85/77 120/140/23 118/132/26 18/120/111
f 21/103/94 112/152/19 110/136/22 22/107/98
