# Blender v2.78 (sub 0) OBJ File: 'models.blend'
# www.blender.org
mtllib knife.mtl
g Plane.018_Plane.027
v -0.050000 -0.354361 6.977700
v -0.050000 0.500000 0.000000
v -0.050000 0.500000 7.000000
v -0.050000 -0.786477 5.318377
v -0.050000 -1.011177 2.120723
v -0.050000 -1.011177 0.000000
v 0.050000 -0.354361 6.977700
v 0.050000 0.500000 0.000000
v 0.050000 0.500000 7.000000
v 0.050000 -0.786477 5.318377
v 0.050000 -1.011177 2.120723
v 0.050000 -1.011177 0.000000
v 0.000000 -1.511177 0.000000
v 0.000000 -1.511177 2.120723
v 0.000000 -1.286477 5.318377
v 0.000000 -0.854361 6.977700
v -0.000000 0.200000 9.000000
v -0.000000 0.500000 7.000000
v -0.000000 0.500000 0.000000
vn -0.9999 -0.0003 0.0120
vn -1.0000 -0.0000 0.0000
vn -0.9988 -0.0498 0.0000
vn -0.9987 -0.0509 0.0018
vn -0.9986 -0.0527 0.0092
vn -0.9984 -0.0501 0.0256
vn 0.9999 -0.0003 0.0120
vn 0.9984 -0.0501 0.0256
vn 0.9986 -0.0527 0.0092
vn 0.9987 -0.0509 0.0018
vn 0.9988 -0.0498 -0.0000
vn 1.0000 0.0000 -0.0000
vn 0.9950 -0.0995 0.0034
vn 0.9950 -0.0995 0.0000
vn 0.9944 -0.0994 0.0356
vn 0.9949 -0.0995 0.0154
vn 0.0000 0.9972 0.0744
vn 0.0000 0.9889 0.1483
vn 0.0000 0.9973 0.0738
vn 0.0000 0.0000 -1.0000
vn 0.0000 1.0000 0.0000
vn 0.9988 -0.0342 0.0341
vn -0.9988 -0.0342 0.0341
vn -0.9950 -0.0995 0.0034
vn -0.9949 -0.0995 0.0154
vn -0.9944 -0.0994 0.0356
vn -0.9950 -0.0995 0.0000
usemtl None
s 1
f 3//1 2//2 6//3 5//4 4//5 1//6
f 9//7 7//8 10//9 11//10 12//11 8//12
f 14//13 13//14 12//11 11//10
f 16//15 15//16 10//9 7//8
f 18//17 17//18 9//19
f 13//20 19//20 8//20 12//20
f 15//16 14//13 11//10 10//9
f 19//21 18//17 9//19 8//21
f 17//22 7//8 9//7
f 1//6 17//23 3//1
f 2//21 3//19 18//17 19//21
f 4//5 5//4 14//24 15//25
f 6//20 2//20 19//20 13//20
f 3//19 17//18 18//17
f 1//6 4//5 15//25 16//26
f 5//4 6//3 13//27 14//24
f 1//6 16//26 17//23
f 17//22 16//15 7//8
g Cube.003_Cube.004
v -0.240000 -0.300000 0.000000
v -0.240000 0.500000 0.000000
v 0.240000 -0.300000 0.000000
v 0.240000 0.500000 0.000000
v 0.240000 0.575020 -3.299947
v -0.240000 0.575020 -3.299947
v 0.240000 -0.700000 -4.500000
v -0.240000 -0.700000 -4.500000
v 0.240000 -0.725007 -4.141838
v -0.240000 -0.725007 -4.141838
v -0.240000 -0.453759 -2.466882
v -0.240000 -0.455269 -1.616564
v 0.240000 -0.455269 -1.616564
v 0.240000 -0.453759 -2.466882
v 0.240000 -0.322959 -3.699643
v 0.240000 -0.457080 -3.988099
v -0.240000 -0.457079 -3.988099
v -0.240000 -0.322959 -3.699643
v -0.240000 0.306631 -4.660377
v -0.240000 0.094361 -4.696792
v 0.240000 0.094361 -4.696792
v 0.240000 0.306631 -4.660377
v -0.240000 0.541678 -4.365887
v -0.240000 0.436652 -4.560871
v 0.240000 0.436652 -4.560871
v 0.240000 0.541678 -4.365887
vn 1.0000 0.0000 -0.0000
vn 0.0000 0.0000 1.0000
vn 0.0000 -0.9865 0.1640
vn 0.0000 -0.9986 -0.0537
vn -1.0000 -0.0000 0.0000
vn 0.0000 0.9997 0.0227
vn 0.0000 1.0000 -0.0043
vn 0.0000 -0.9976 -0.0697
vn 0.0000 0.9657 -0.2597
vn 0.0000 -0.9989 0.0470
vn 0.0000 -0.9954 0.0956
vn 0.0000 -0.7368 0.6762
vn 0.0000 -0.4977 0.8674
vn -0.0000 -0.0365 -0.9993
vn -0.0000 0.4000 -0.9165
vn 0.0000 -0.2405 -0.9707
vn 0.0000 0.7611 -0.6487
usemtl None
s 1
f 24//28 23//28 22//28 32//28 33//28 34//28 35//28 28//28 26//28 40//28 41//28 44//28 45//28
f 22//29 23//29 21//29 20//29
f 34//30 33//31 30//31 37//30
f 25//32 42//32 43//32 38//32 39//32 27//32 29//32 36//32 37//32 30//32 31//32 20//32 21//32
f 23//33 24//34 25//34 21//33
f 26//35 28//35 29//35 27//35
f 24//34 45//36 42//36 25//34
f 32//37 22//38 20//38 31//37
f 32//37 31//37 30//31 33//31
f 34//30 37//30 36//39 35//39
f 35//39 36//39 29//40 28//40
f 40//41 39//41 38//42 41//42
f 39//41 40//41 26//43 27//43
f 42//36 45//36 44//44 43//44
f 38//42 43//44 44//44 41//42
