# Blender v2.78 (sub 0) OBJ File: 'models.blend'
# www.blender.org
mtllib cup.mtl
g Circle.003_Circle.004
v 0.784628 0.000000 -0.156072
v 0.665176 0.000000 -0.444456
v 0.444456 0.000000 -0.665176
v 0.156072 0.000000 -0.784628
v -0.156072 0.000000 -0.784628
v -0.444456 0.000000 -0.665176
v -0.665176 0.000000 -0.444456
v -0.784628 0.000000 -0.156072
v -0.784628 0.000000 0.156073
v -0.665175 0.000000 0.444457
v -0.444456 0.000000 0.665176
v -0.156072 0.000000 0.784628
v 0.156073 0.000000 0.784628
v 0.444457 0.000000 0.665175
v 0.665176 0.000000 0.444455
v 0.784629 0.000000 0.156071
v 1.029825 2.100000 0.204843
v 1.029824 2.100000 -0.204845
v 0.873043 2.100000 -0.583349
v 0.583349 2.100000 -0.873043
v 0.204845 2.100000 -1.029825
v -0.204845 2.100000 -1.029825
v -0.583349 2.100000 -0.873043
v -0.873043 2.100000 -0.583349
v -1.029825 2.100000 -0.204845
v -1.029825 2.100000 0.204845
v -0.873043 2.100000 0.583349
v -0.583348 2.100000 0.873044
v -0.204844 2.100000 1.029825
v 0.204846 2.100000 1.029824
v 0.583350 2.100000 0.873042
v 0.873044 2.100000 0.583348
vt 0.7370 0.1161
vt 0.7832 0.0856
vt 0.8716 0.8769
vt 0.8109 0.9169
vt 0.3103 0.1411
vt 0.3575 0.1606
vt 0.3128 0.9753
vt 0.2510 0.9497
vt 0.4049 0.1746
vt 0.3751 0.9937
vt 0.8288 0.0497
vt 0.9315 0.8298
vt 0.4525 0.1830
vt 0.4376 1.0047
vt 0.8737 0.0086
vt 0.9904 0.7758
vt 0.5003 0.1858
vt 0.5003 1.0084
vt 0.1268 0.0086
vt 0.1717 0.0497
vt 0.0691 0.8298
vt 0.0101 0.7758
vt 0.5480 0.1830
vt 0.5629 1.0047
vt 0.2174 0.0856
vt 0.1289 0.8769
vt 0.6431 0.1606
vt 0.6902 0.1411
vt 0.7496 0.9497
vt 0.6877 0.9753
vt 0.5957 0.1746
vt 0.6255 0.9937
vt 0.2636 0.1161
vt 0.1896 0.9169
vn 0.8256 -0.1182 -0.5517
vn 0.5517 -0.1182 -0.8256
vn -0.9739 -0.1182 0.1937
vn -0.8256 -0.1182 0.5517
vn -0.5517 -0.1182 0.8256
vn 0.1937 -0.1182 -0.9739
vn -0.1937 -0.1182 0.9739
vn -0.1937 -0.1182 -0.9739
vn 0.1937 -0.1182 0.9739
vn -0.5517 -0.1182 -0.8256
vn 0.5517 -0.1182 0.8256
vn -0.8256 -0.1182 -0.5517
vn 0.9739 -0.1182 0.1937
vn 0.9739 -0.1182 -0.1937
vn 0.8256 -0.1182 0.5517
vn -0.9739 -0.1182 -0.1937
usemtl cup_tex
s 1
f 2/1/1 3/2/2 20/3/2 19/4/1
f 9/5/3 10/6/4 27/7/4 26/8/3
f 10/6/4 11/9/5 28/10/5 27/7/4
f 3/2/2 4/11/6 21/12/6 20/3/2
f 11/9/5 12/13/7 29/14/7 28/10/5
f 4/11/6 5/15/8 22/16/8 21/12/6
f 12/13/7 13/17/9 30/18/9 29/14/7
f 5/19/8 6/20/10 23/21/10 22/22/8
f 13/17/9 14/23/11 31/24/11 30/18/9
f 6/20/10 7/25/12 24/26/12 23/21/10
f 16/27/13 1/28/14 18/29/14 17/30/13
f 14/23/11 15/31/15 32/32/15 31/24/11
f 7/25/12 8/33/16 25/34/16 24/26/12
f 1/28/14 2/1/1 19/4/1 18/29/14
f 8/33/16 9/5/3 26/8/3 25/34/16
f 15/31/15 16/27/13 17/30/13 32/32/15
g Circle.000_Circle.003
v 0.184685 1.672310 -0.928474
v -0.787122 1.672310 0.525939
v -0.184684 1.672310 0.928474
v 0.787123 1.672310 0.525937
v 0.928474 1.672310 0.184684
v 0.787122 1.672310 -0.525938
v -0.184685 1.672310 -0.928474
v -0.525938 1.672310 -0.787122
v -0.787122 1.672310 -0.525938
v -0.928474 1.672310 -0.184685
v -0.525938 1.672310 0.787123
v 0.184686 1.672310 0.928474
v 0.525939 1.672310 0.787122
v 0.928474 1.672310 -0.184685
v 0.525938 1.672310 -0.787122
v -0.928474 1.672310 0.184685
vt 0.5000 0.9592
vt 0.6757 0.9243
vt 0.8247 0.8247
vt 0.9243 0.6757
vt 0.9592 0.5000
vt 0.9243 0.3243
vt 0.8247 0.1753
vt 0.6757 0.0757
vt 0.5000 0.0408
vt 0.3243 0.0757
vt 0.1753 0.1753
vt 0.0757 0.3243
vt 0.0408 0.5000
vt 0.0757 0.6757
vt 0.1753 0.8247
vt 0.3243 0.9243
vn 0.0000 1.0000 -0.0000
usemtl noodle
s 1
f 46/35/17 38/36/17 47/37/17 33/38/17 39/39/17 40/40/17 41/41/17 42/42/17 48/43/17 34/44/17 43/45/17 35/46/17 44/47/17 45/48/17 36/49/17 37/50/17
g Circle.002
v -0.093136 2.820069 -0.214599
v 0.252672 2.389648 -0.914617
v 0.192410 2.211740 -1.078864
v -0.611127 2.200000 -0.914617
v -0.914617 2.200000 -0.611127
v -1.078864 2.200000 -0.214599
v -1.078864 2.200000 0.214600
v -0.214598 2.200000 1.078864
v 0.252673 2.389648 0.914616
v 0.029627 2.668221 -0.611127
v -0.214599 2.200000 -1.078864
v -0.914616 2.200000 0.611128
v -0.611127 2.200000 0.914617
v 0.192412 2.211740 1.078864
v 0.029628 2.668221 0.611126
v -0.093135 2.820069 0.214598
v -0.100912 2.813782 -0.214599
v 0.241444 2.387671 -0.914617
v 0.185170 2.221535 -1.078864
v -0.611127 2.210000 -0.914617
v -0.914617 2.210000 -0.611127
v -1.078864 2.210000 -0.214599
v -1.078864 2.210000 0.214600
v -0.214743 2.210000 1.078864
v 0.241446 2.387671 0.914616
v 0.021836 2.661953 -0.611127
v -0.214743 2.210000 -1.078864
v -0.914616 2.210000 0.611128
v -0.611127 2.210000 0.914617
v 0.185171 2.221535 1.078864
v 0.021837 2.661952 0.611126
v -0.100912 2.813782 0.214598
vn 0.7776 0.6287 -0.0000
vn 0.7801 0.6256 -0.0000
vn 0.9977 -0.0678 -0.0000
vn 0.9471 -0.3208 -0.0000
vn 0.0288 -0.9996 0.0000
vn 0.0165 -0.9999 0.0000
vn 0.0000 -1.0000 -0.0000
vn -0.7776 -0.6287 0.0000
vn -0.7801 -0.6256 0.0000
vn -0.9974 0.0726 0.0000
vn -0.9471 0.3208 0.0000
vn -0.0288 0.9996 0.0000
vn -0.0165 0.9999 -0.0000
vn 0.0000 1.0000 -0.0000
vn -0.0006 0.6364 -0.7714
vn 0.1513 0.3573 -0.9217
vn 0.1344 0.3174 -0.9387
vn -0.0021 0.6364 -0.7714
vn -0.8315 0.0000 0.5556
vn -0.5556 -0.0014 0.8315
vn -0.4240 0.6700 0.6094
vn -0.6119 0.7577 0.2268
vn -0.4239 0.6700 0.6095
vn -0.6119 0.7577 -0.2268
vn -0.4240 0.6700 -0.6094
vn -0.4239 0.6700 -0.6095
vn -0.1952 -0.0014 -0.9808
vn -0.1951 -0.0014 -0.9808
vn -0.5556 -0.0014 -0.8315
vn -0.8315 0.0000 -0.5556
vn -0.9808 0.0000 -0.1951
vn -0.9808 0.0000 0.1951
vn -0.1952 -0.0014 0.9808
vn -0.1951 -0.0014 0.9808
vn 0.1513 0.3573 0.9217
vn 0.1344 0.3174 0.9387
vn -0.0006 0.6364 0.7714
vn -0.0021 0.6364 0.7714
usemtl cup
s 1
f 49//18 64//18 63//19 58//19
f 58//19 63//19 57//20 50//20
f 50//20 57//20 62//21 51//21
f 51//22 62//22 56//23 59//23
f 59//23 56//23 61//24 52//24
f 52//24 61//24 60//24 53//24
f 53//24 60//24 55//24 54//24
f 65//25 74//26 79//26 80//25
f 74//26 66//27 73//27 79//26
f 66//27 67//28 78//28 73//27
f 67//29 75//30 72//30 78//29
f 75//30 68//31 77//31 72//30
f 68//31 69//31 76//31 77//31
f 69//31 70//31 71//31 76//31
f 50//32 51//33 67//34 66//35
f 60//36 61//37 77//37 76//36
f 63//38 64//39 80//39 79//40
f 64//39 49//41 65//41 80//39
f 49//41 58//42 74//43 65//41
f 58//42 50//32 66//35 74//43
f 51//33 59//44 75//45 67//34
f 59//44 52//46 68//46 75//45
f 52//46 53//47 69//47 68//46
f 53//47 54//48 70//48 69//47
f 54//48 55//49 71//49 70//48
f 55//49 60//36 76//36 71//49
f 61//37 56//50 72//51 77//37
f 56//50 62//52 78//53 72//51
f 62//52 57//54 73//55 78//53
f 57//54 63//38 79//40 73//55
g Circle.001
v 0.784628 0.000000 -0.156072
v 0.665176 0.000000 -0.444456
v 0.444456 0.000000 -0.665176
v 0.156072 0.000000 -0.784628
v -0.156072 0.000000 -0.784628
v -0.444456 0.000000 -0.665176
v -0.665176 0.000000 -0.444456
v -0.784628 0.000000 -0.156072
v -0.784628 0.000000 0.156073
v -0.665175 0.000000 0.444457
v -0.444456 0.000000 0.665176
v -0.156072 0.000000 0.784628
v 0.156073 0.000000 0.784628
v 0.444457 0.000000 0.665175
v 0.665176 0.000000 0.444455
v 0.784629 0.000000 0.156071
v 1.029825 2.100000 0.204843
v 1.029824 2.100000 -0.204845
v 0.873043 2.100000 -0.583349
v 0.583349 2.100000 -0.873043
v 0.204845 2.100000 -1.029825
v -0.204845 2.100000 -1.029825
v -0.583349 2.100000 -0.873043
v -0.873043 2.100000 -0.583349
v -1.029825 2.100000 -0.204845
v -1.029825 2.100000 0.204845
v -0.873043 2.100000 0.583349
v -0.583348 2.100000 0.873044
v -0.204844 2.100000 1.029825
v 0.204846 2.100000 1.029824
v 0.583350 2.100000 0.873042
v 0.873044 2.100000 0.583348
v 1.078864 2.100000 -0.214599
v 0.914617 2.100000 -0.611127
v 0.611127 2.100000 -0.914617
v 0.214599 2.100000 -1.078864
v -0.214599 2.100000 -1.078864
v -0.611127 2.100000 -0.914617
v -0.914617 2.100000 -0.611127
v -1.078864 2.100000 -0.214599
v -1.078864 2.100000 0.214600
v -0.914616 2.100000 0.611128
v -0.611127 2.100000 0.914617
v -0.214598 2.100000 1.078864
v 0.214600 2.100000 1.078864
v 0.611128 2.100000 0.914616
v 0.914617 2.100000 0.611126
v 1.078864 2.100000 0.214598
v 1.078864 2.200000 -0.214599
v 0.611127 2.200000 -0.914617
v 0.214599 2.200000 -1.078864
v -0.611127 2.200000 -0.914617
v -0.914617 2.200000 -0.611127
v -1.078864 2.200000 -0.214599
v -1.078864 2.200000 0.214600
v -0.214598 2.200000 1.078864
v 0.611128 2.200000 0.914616
v 0.914617 2.200000 -0.611127
v -0.214599 2.200000 -1.078864
v -0.914616 2.200000 0.611128
v -0.611127 2.200000 0.914617
v 0.214600 2.200000 1.078864
v 0.914617 2.200000 0.611126
v 1.078864 2.200000 0.214598
v 0.184685 1.672310 -0.928474
v -0.787122 1.672310 0.525939
v -0.184684 1.672310 0.928474
v 0.787123 1.672310 0.525937
v 0.928474 1.672310 0.184684
v 0.787122 1.672310 -0.525938
v -0.184685 1.672310 -0.928474
v -0.525938 1.672310 -0.787122
v -0.787122 1.672310 -0.525938
v -0.928474 1.672310 -0.184685
v -0.525938 1.672310 0.787123
v 0.184686 1.672310 0.928474
v 0.525939 1.672310 0.787122
v -0.581212 2.200000 0.869847
v -0.204094 2.200000 1.026054
v 0.204095 2.200000 -1.026053
v -0.204095 2.200000 -1.026054
v -0.581213 2.200000 -0.869846
v 0.204096 2.200000 1.026053
v -0.869846 2.200000 -0.581213
v 0.581214 2.200000 0.869846
v 1.026053 2.200000 -0.204095
v 0.869847 2.200000 0.581211
v -1.026054 2.200000 -0.204094
v 0.869846 2.200000 -0.581213
v -1.026054 2.200000 0.204095
v 1.026054 2.200000 0.204093
v 0.581213 2.200000 -0.869846
v -0.869846 2.200000 0.581213
v -0.204094 2.140387 1.026054
v -0.204095 2.140387 -1.026054
v 0.204096 2.140387 1.026053
v -0.581213 2.140387 -0.869846
v 0.581214 2.140387 0.869846
v -0.869846 2.140387 -0.581213
v 1.026053 2.140387 -0.204095
v -1.026054 2.140387 -0.204094
v 0.869846 2.140387 -0.581213
v 0.869847 2.140387 0.581211
v -1.026054 2.140387 0.204095
v -0.869846 2.140387 0.581213
v 0.581213 2.140387 -0.869846
v -0.581212 2.140387 0.869847
v 0.204095 2.140387 -1.026053
v 1.026054 2.140387 0.204093
v 0.928474 1.672310 -0.184685
v 0.525938 1.672310 -0.787122
v -0.928474 1.672310 0.184685
vn 0.0000 -1.0000 0.0000
vn 0.9808 -0.0000 -0.1951
vn 0.8315 0.0000 -0.5556
vn -0.9808 0.0000 -0.1951
vn -0.9808 0.0000 0.1951
vn 0.8315 0.0000 0.5556
vn 0.9808 -0.0000 0.1951
vn 0.5556 0.0000 -0.8315
vn -0.8315 0.0000 0.5556
vn -0.5556 0.0000 0.8315
vn 0.1951 0.0000 -0.9808
vn -0.1951 0.0000 0.9808
vn -0.1951 0.0000 -0.9808
vn 0.1951 0.0000 0.9808
vn -0.5556 0.0000 -0.8315
vn 0.5556 0.0000 0.8315
vn -0.8315 0.0000 -0.5556
vn 0.5526 0.1032 -0.8270
vn 0.1940 0.1032 -0.9755
vn 0.1908 0.2079 -0.9594
vn 0.5434 0.2079 -0.8133
vn -0.1940 0.1032 0.9755
vn 0.1940 0.1032 0.9755
vn 0.1908 0.2079 0.9594
vn -0.1908 0.2079 0.9594
vn -0.1940 0.1032 -0.9755
vn -0.1908 0.2079 -0.9594
vn 0.5526 0.1032 0.8270
vn 0.5434 0.2079 0.8133
vn -0.5526 0.1032 -0.8270
vn -0.5434 0.2079 -0.8133
vn 0.8270 0.1032 0.5526
vn 0.8133 0.2079 0.5434
vn -0.9755 0.1032 -0.1940
vn -0.9755 0.1032 0.1940
vn -0.9594 0.2079 0.1908
vn -0.9594 0.2079 -0.1908
vn -0.8270 0.1032 -0.5526
vn -0.8133 0.2079 -0.5434
vn 0.9755 0.1032 0.1940
vn 0.9594 0.2079 0.1908
vn -0.8270 0.1032 0.5526
vn -0.8133 0.2079 0.5434
vn 0.9755 0.1032 -0.1940
vn 0.9594 0.2079 -0.1908
vn -0.5526 0.1032 0.8270
vn -0.5434 0.2079 0.8133
vn 0.8270 0.1032 -0.5526
vn 0.8133 0.2079 -0.5434
vn 0.0000 1.0000 -0.0000
usemtl cup
s 1
f 81//56 96//56 95//56 94//56 93//56 92//56 91//56 90//56 89//56 88//56 87//56 86//56 85//56 84//56 83//56 82//56
f 103//56 104//56 119//56 118//56
f 97//56 98//56 113//56 128//56
f 111//56 112//56 127//56 126//56
f 104//56 105//56 120//56 119//56
f 98//56 99//56 114//56 113//56
f 105//56 106//56 121//56 120//56
f 112//56 97//56 128//56 127//56
f 99//56 100//56 115//56 114//56
f 106//56 107//56 122//56 121//56
f 107//56 108//56 123//56 122//56
f 100//56 101//56 116//56 115//56
f 108//56 109//56 124//56 123//56
f 101//56 102//56 117//56 116//56
f 109//56 110//56 125//56 124//56
f 102//56 103//56 118//56 117//56
f 110//56 111//56 126//56 125//56
f 113//57 114//58 138//58 129//57
f 120//59 121//60 135//60 134//59
f 127//61 128//62 144//62 143//61
f 114//58 115//63 130//63 138//58
f 121//60 122//64 140//64 135//60
f 122//64 123//65 141//65 140//64
f 115//63 116//66 131//66 130//63
f 123//65 124//67 136//67 141//65
f 116//66 117//68 139//68 131//66
f 124//67 125//69 142//69 136//67
f 117//68 118//70 132//70 139//68
f 125//69 126//71 137//71 142//69
f 118//70 119//72 133//72 132//70
f 128//62 113//57 129//57 144//62
f 126//71 127//61 143//61 137//71
f 119//72 120//59 134//59 133//72
f 187//73 174//74 147//75 155//76
f 188//77 175//78 151//79 145//80
f 174//74 176//81 156//82 147//75
f 175//78 177//83 152//84 151//79
f 176//81 178//85 157//86 156//82
f 177//83 179//87 153//88 152//84
f 189//89 180//90 190//91 149//92
f 178//85 183//93 148//94 157//86
f 179//87 181//95 154//96 153//88
f 180//90 182//97 150//98 190//91
f 181//95 184//99 192//100 154//96
f 183//93 189//89 149//92 148//94
f 182//97 186//101 191//102 150//98
f 184//99 185//103 146//104 192//100
f 185//103 187//73 155//76 146//104
f 186//101 188//77 145//80 191//102
f 130//105 131//105 160//105 172//105
f 140//105 141//105 158//105 173//105
f 135//105 140//105 173//105 170//105
f 138//105 130//105 172//105 169//105
f 143//105 144//105 171//105 167//105
f 134//105 135//105 170//105 168//105
f 129//105 138//105 169//105 166//105
f 133//105 134//105 168//105 164//105
f 137//105 143//105 167//105 165//105
f 144//105 129//105 166//105 171//105
f 132//105 133//105 164//105 162//105
f 142//105 137//105 165//105 163//105
f 139//105 132//105 162//105 161//105
f 136//105 142//105 163//105 159//105
f 131//105 139//105 161//105 160//105
f 141//105 136//105 159//105 158//105
f 172//65 160//67 188//77 186//101
f 173//58 158//63 187//73 185//103
f 170//57 173//58 185//103 184//99
f 169//64 172//65 186//101 182//97
f 167//72 171//59 189//89 183//93
f 168//62 170//57 184//99 181//95
f 166//60 169//64 182//97 180//90
f 164//61 168//62 181//95 179//87
f 165//70 167//72 183//93 178//85
f 171//59 166//60 180//90 189//89
f 162//71 164//61 179//87 177//83
f 163//68 165//70 178//85 176//81
f 161//69 162//71 177//83 175//78
f 159//66 163//68 176//81 174//74
f 160//67 161//69 175//78 188//77
f 158//63 159//66 174//74 187//73
